<?xml version="1.0" encoding="UTF-8" standalone="no"?>
<svg
   xmlns:dc="http://purl.org/dc/elements/1.1/"
   xmlns:cc="http://creativecommons.org/ns#"
   xmlns:rdf="http://www.w3.org/1999/02/22-rdf-syntax-ns#"
   xmlns:svg="http://www.w3.org/2000/svg"
   xmlns="http://www.w3.org/2000/svg"
   xmlns:sodipodi="http://sodipodi.sourceforge.net/DTD/sodipodi-0.dtd"
   xmlns:inkscape="http://www.inkscape.org/namespaces/inkscape"
   version="1.0"
   width="1746.4492pt"
   height="523.33337pt"
   viewBox="0 0 1746.4492 523.3334"
   preserveAspectRatio="xMidYMid meet"
   id="svg2"
   inkscape:version="0.91 r13725"
   sodipodi:docname="Hilton Latitude logo 2.svg"
   inkscape:export-filename="/home/aidan/Pictures/Hilton Latitude logo 2.png"
   inkscape:export-xdpi="90"
   inkscape:export-ydpi="90">
  <defs
     id="defs26" />
  <sodipodi:namedview
     pagecolor="#ffffff"
     bordercolor="#666666"
     borderopacity="1"
     objecttolerance="10"
     gridtolerance="10"
     guidetolerance="10"
     inkscape:pageopacity="0"
     inkscape:pageshadow="2"
     inkscape:window-width="1855"
     inkscape:window-height="1056"
     id="namedview24"
     showgrid="false"
     fit-margin-top="80"
     fit-margin-left="120"
     fit-margin-right="80"
     fit-margin-bottom="80"
     inkscape:zoom="0.7736841"
     inkscape:cx="900.23826"
     inkscape:cy="327.08336"
     inkscape:window-x="65"
     inkscape:window-y="24"
     inkscape:window-maximized="1"
     inkscape:current-layer="svg2" />
  <metadata
     id="metadata4">
Created by potrace 1.13, written by Peter Selinger 2001-2015
<rdf:RDF>
  <cc:Work
     rdf:about="">
    <dc:format>image/svg+xml</dc:format>
    <dc:type
       rdf:resource="http://purl.org/dc/dcmitype/StillImage" />
    <dc:title />
  </cc:Work>
</rdf:RDF>
</metadata>
  <g
     transform="matrix(0.0375,0,0,-0.0375,660.03697,238.25)"
     id="g6"
     style="fill:#000000;stroke:none">
    <path
       d="M 0,2110 0,0 l 5685,0 5685,0 0,2110 0,2110 -5685,0 -5685,0 0,-2110 z m 11180,0 0,-1920 -5492,2 -5493,3 -3,1918 -2,1917 5495,0 5495,0 0,-1920 z"
       id="path8"
       inkscape:connector-curvature="0" />
    <path
       d="m 980,3196 0,-54 43,-7 c 23,-3 57,-9 75,-12 l 32,-5 -2,-1007 -3,-1006 -72,-8 -73,-9 0,-59 0,-59 380,0 380,0 0,59 0,59 -72,9 -73,8 -3,458 -2,457 500,0 500,0 0,-454 c 0,-379 -2,-455 -14,-459 -8,-3 -46,-9 -85,-13 l -71,-7 0,-58 0,-59 390,0 390,0 0,59 0,59 -67,7 c -36,4 -72,9 -80,12 -11,4 -13,184 -13,1008 l 0,1003 40,6 c 22,3 58,9 80,12 l 40,6 0,54 0,54 -390,0 -390,0 0,-54 0,-54 48,-6 c 26,-4 64,-9 85,-12 l 37,-6 0,-429 0,-429 -500,0 -500,0 0,429 0,429 43,7 c 118,18 107,11 107,71 l 0,54 -380,0 -380,0 0,-54 z"
       id="path10"
       inkscape:connector-curvature="0" />
    <path
       d="m 3789,3222 c -208,-108 -125,-422 111,-422 71,0 126,26 172,79 75,88 75,204 -1,292 -70,83 -183,103 -282,51 z"
       id="path12"
       inkscape:connector-curvature="0" />
    <path
       d="m 4570,3201 0,-49 68,-8 67,-9 3,-1022 2,-1021 -27,-6 c -16,-3 -47,-8 -70,-11 l -43,-7 0,-49 0,-49 355,0 355,0 0,49 0,49 -42,7 c -24,3 -55,8 -70,11 l -28,6 0,1079 0,1079 -285,0 -285,0 0,-49 z"
       id="path14"
       inkscape:connector-curvature="0" />
    <path
       d="m 5943,2996 -203,-61 0,-172 0,-173 -155,0 -155,0 0,-75 0,-75 149,0 150,0 3,-607 c 4,-676 4,-669 73,-765 105,-144 419,-159 793,-37 l 62,21 0,55 0,55 -30,-7 c -17,-4 -88,-7 -158,-7 -182,-1 -240,21 -284,110 l -23,47 -3,568 -3,567 191,0 190,0 0,75 0,75 -190,0 -190,0 0,235 c 0,129 -3,235 -7,234 -5,-1 -99,-29 -210,-63 z"
       id="path16"
       inkscape:connector-curvature="0" />
    <path
       d="m 7480,2634 c -150,-20 -337,-95 -442,-178 -123,-98 -222,-254 -268,-421 -31,-112 -39,-361 -16,-494 33,-186 87,-301 196,-411 130,-131 309,-195 580,-206 286,-13 520,63 690,223 161,151 236,326 247,573 7,157 -8,276 -51,402 -44,131 -86,198 -181,293 -65,66 -98,89 -175,128 -131,64 -232,87 -405,92 -77,2 -156,1 -175,-1 z m 180,-124 c 117,-22 197,-89 255,-215 63,-136 85,-268 85,-519 0,-501 -122,-727 -395,-728 -99,-1 -171,27 -232,91 -127,130 -189,432 -163,786 26,355 133,547 323,585 59,11 68,11 127,0 z"
       id="path18"
       inkscape:connector-curvature="0" />
    <path
       d="m 9712,2619 c -125,-16 -279,-85 -410,-184 -40,-30 -78,-55 -83,-55 -5,0 -9,47 -9,105 l 0,105 -285,0 -285,0 0,-54 0,-54 48,-6 c 26,-4 59,-9 75,-12 l 27,-6 0,-683 0,-683 -57,-6 c -93,-11 -93,-11 -93,-67 l 0,-49 360,0 360,0 0,50 c 0,28 -3,50 -7,51 -5,1 -37,6 -73,13 l -65,11 0,580 0,580 50,33 c 28,18 86,47 130,64 69,28 92,32 170,33 99,0 145,-17 197,-72 79,-83 90,-176 86,-763 l -3,-455 -65,-11 c -36,-7 -68,-12 -72,-13 -5,-1 -8,-23 -8,-51 l 0,-50 360,0 360,0 0,49 c 0,56 0,56 -92,66 l -57,7 -3,582 c -3,576 -4,582 -27,651 -31,95 -61,144 -121,198 -59,53 -134,84 -234,97 -80,11 -87,11 -174,-1 z"
       id="path20"
       inkscape:connector-curvature="0" />
    <path
       d="m 3540,2541 0,-49 48,-6 c 26,-4 59,-9 75,-12 l 27,-6 -2,-686 -3,-687 -65,-11 c -36,-7 -68,-12 -72,-13 -5,-1 -8,-23 -8,-51 l 0,-50 361,0 360,0 -3,46 c -4,55 -11,61 -90,69 l -58,6 0,750 0,749 -285,0 -285,0 0,-49 z"
       id="path22"
       inkscape:connector-curvature="0" />
  </g>
  <g
     transform="translate(-1303.4404,-299.81979)"
     style="font-style:normal;font-weight:normal;font-size:16px;line-height:125%;font-family:sans-serif;text-align:center;letter-spacing:0px;word-spacing:0px;text-anchor:middle;fill:#000000;fill-opacity:1;stroke:none;stroke-width:1px;stroke-linecap:butt;stroke-linejoin:miter;stroke-opacity:1"
     id="flowRoot4173">
    <path
       d="m 1383.4404,696.04085 150,0 0,10.54688 -150,0 0,-10.54688 z"
       style="font-style:normal;font-variant:normal;font-weight:normal;font-stretch:normal;font-size:150px;font-family:Raleway;-inkscape-font-specification:Raleway;text-align:center;letter-spacing:63.99999619px;text-anchor:middle"
       id="path4150" />
    <path
       d="m 1610.7904,742.40316 0,-106.5 10.5,0 0,97.2 61.5,0 0,9.3 -72,0 z"
       style="font-style:normal;font-variant:normal;font-weight:normal;font-stretch:normal;font-size:150px;font-family:Raleway;-inkscape-font-specification:Raleway;text-align:center;letter-spacing:63.99999619px;text-anchor:middle"
       id="path4152" />
    <path
       d="m 1795.3881,635.90316 8.85,0 44.25,106.5 -11.1,0 -13.8,-33.3 -47.85,0 -13.65,33.3 -11.25,0 44.55,-106.5 z m 25.8,64.95 -21.45,-52.65 -21.75,52.65 43.2,0 z"
       style="font-style:normal;font-variant:normal;font-weight:normal;font-stretch:normal;font-size:150px;font-family:Raleway;-inkscape-font-specification:Raleway;text-align:center;letter-spacing:63.99999619px;text-anchor:middle"
       id="path4154" />
    <path
       d="m 1992.8084,645.20316 -37.95,0 0,97.2 -10.5,0 0,-97.2 -37.95,0 0,-9.3 86.4,0 0,9.3 z"
       style="font-style:normal;font-variant:normal;font-weight:normal;font-stretch:normal;font-size:150px;font-family:Raleway;-inkscape-font-specification:Raleway;text-align:center;letter-spacing:63.99999619px;text-anchor:middle"
       id="path4156" />
    <path
       d="m 2072.6147,742.40316 0,-106.5 10.5,0 0,106.5 -10.5,0 z"
       style="font-style:normal;font-variant:normal;font-weight:normal;font-stretch:normal;font-size:150px;font-family:Raleway;-inkscape-font-specification:Raleway;text-align:center;letter-spacing:63.99999619px;text-anchor:middle"
       id="path4158" />
    <path
       d="m 2249.4217,645.20316 -37.95,0 0,97.2 -10.5,0 0,-97.2 -37.95,0 0,-9.3 86.4,0 0,9.3 z"
       style="font-style:normal;font-variant:normal;font-weight:normal;font-stretch:normal;font-size:150px;font-family:Raleway;-inkscape-font-specification:Raleway;text-align:center;letter-spacing:63.99999619px;text-anchor:middle"
       id="path4160" />
    <path
       d="m 2372.4279,733.70316 q 10.05,0 16.65,-3.75 6.75,-3.9 10.65,-10.05 4.05,-6.3 5.55,-14.25 1.65,-7.95 1.65,-16.05 l 0,-53.7 10.5,0 0,53.7 q 0,10.8 -2.4,20.55 -2.4,9.6 -7.8,16.95 -5.25,7.35 -13.8,11.7 -8.55,4.35 -20.85,4.35 -12.6,0 -21.3,-4.5 -8.55,-4.65 -13.8,-12.15 -5.25,-7.5 -7.5,-17.1 -2.25,-9.6 -2.25,-19.8 l 0,-53.7 10.35,0 0,53.7 q 0,8.4 1.65,16.35 1.65,7.95 5.55,14.1 4.05,6.15 10.65,9.9 6.6,3.75 16.5,3.75 z"
       style="font-style:normal;font-variant:normal;font-weight:normal;font-stretch:normal;font-size:150px;font-family:Raleway;-inkscape-font-specification:Raleway;text-align:center;letter-spacing:63.99999619px;text-anchor:middle"
       id="path4162" />
    <path
       d="m 2506.6069,742.40316 0,-106.5 36.15,0 q 12.75,0 22.2,4.2 9.6,4.2 15.9,11.4 6.45,7.2 9.6,16.95 3.3,9.6 3.3,20.55 0,12.15 -3.6,22.05 -3.6,9.75 -10.35,16.8 -6.6,6.9 -16.05,10.8 -9.3,3.75 -21,3.75 l -36.15,0 z m 76.65,-53.4 q 0,-9.6 -2.7,-17.55 -2.7,-8.1 -7.95,-13.95 -5.1,-5.85 -12.6,-9 -7.5,-3.3 -17.25,-3.3 l -25.65,0 0,87.9 25.65,0 q 9.9,0 17.4,-3.3 7.65,-3.45 12.75,-9.3 5.1,-6 7.65,-13.95 2.7,-8.1 2.7,-17.55 z"
       style="font-style:normal;font-variant:normal;font-weight:normal;font-stretch:normal;font-size:150px;font-family:Raleway;-inkscape-font-specification:Raleway;text-align:center;letter-spacing:63.99999619px;text-anchor:middle"
       id="path4164" />
    <path
       d="m 2749.3834,733.10316 0,9.3 -71.55,0 0,-106.5 70.2,0 0,9.3 -59.7,0 0,38.4 52.05,0 0,8.85 -52.05,0 0,40.65 61.05,0 z"
       style="font-style:normal;font-variant:normal;font-weight:normal;font-stretch:normal;font-size:150px;font-family:Raleway;-inkscape-font-specification:Raleway;text-align:center;letter-spacing:63.99999619px;text-anchor:middle"
       id="path4166" />
    <path
       d="m 2819.8897,696.04085 150,0 0,10.54688 -150,0 0,-10.54688 z"
       style="font-style:normal;font-variant:normal;font-weight:normal;font-stretch:normal;font-size:150px;font-family:Raleway;-inkscape-font-specification:Raleway;text-align:center;letter-spacing:63.99999619px;text-anchor:middle"
       id="path4168" />
  </g>
  <flowRoot
     xml:space="preserve"
     id="flowRoot4181"
     style="font-style:normal;font-weight:normal;font-size:20px;line-height:125%;font-family:sans-serif;letter-spacing:0px;word-spacing:0px;fill:#000000;fill-opacity:1;stroke:none;stroke-width:1px;stroke-linecap:butt;stroke-linejoin:miter;stroke-opacity:1"
     transform="translate(-981.5082,-178.83958)"><flowRegion
       id="flowRegion4183"><rect
         id="rect4185"
         width="1568.4611"
         height="682.77411"
         x="1546.5245"
         y="34.279552" /></flowRegion><flowPara
       id="flowPara4187" /></flowRoot></svg>
